<?xml version="1.0" standalone="no"?><!DOCTYPE svg PUBLIC "-//W3C//DTD SVG 1.1//EN" "http://www.w3.org/Graphics/SVG/1.1/DTD/svg11.dtd"><svg t="1638017294940" class="icon" viewBox="0 0 1024 1024" version="1.1" xmlns="http://www.w3.org/2000/svg" p-id="987" xmlns:xlink="http://www.w3.org/1999/xlink" width="200" height="200"><defs><style type="text/css"></style></defs><path d="M259.227152 855.195152a31.030303 31.030303 0 0 1 31.030303-31.030304h558.545454a31.030303 31.030303 0 1 1 0 62.060607h-558.545454a31.030303 31.030303 0 0 1-31.030303-31.030303zM336.058182 210.385455a62.060606 62.060606 0 0 1 28.299636-6.826667h65.536a31.030303 31.030303 0 0 1 22.869334 10.053818l161.450666 176.128h203.558788a155.151515 155.151515 0 0 1 155.151515 155.151515v93.090909a31.030303 31.030303 0 0 1-31.030303 31.030303H258.482424a155.151515 155.151515 0 0 1-148.604121-110.560969l-54.551273-181.899637 26.406788-7.943757-26.406788 7.943757A62.060606 62.060606 0 0 1 114.750061 296.649697h66.901333a31.030303 31.030303 0 0 1 23.831273 11.170909l68.266666 81.92h66.56L305.462303 285.261576a62.060606 62.060606 0 0 1 30.595879-74.876121z m80.182303 55.233939h-51.882667l48.407273 145.345939a31.030303 31.030303 0 0 1-29.416727 40.835879h-124.121212a31.030303 31.030303 0 0 1-23.831273-11.170909l-68.266667-81.92H114.750061l54.582303 181.899636A93.090909 93.090909 0 0 0 258.482424 606.952727h652.381091v-62.060606a93.090909 93.090909 0 0 0-93.090909-93.090909h-217.212121a31.030303 31.030303 0 0 1-22.869333-10.053818L416.240485 265.619394z" fill="#1296db" p-id="988"></path></svg>